<?xml version="1.0" encoding="UTF-8"?>
<svg id="Capa_2" data-name="Capa 2" xmlns="http://www.w3.org/2000/svg" viewBox="0 0 500 500">
  <defs>
    <style>
      .cls-1 {
        fill: #1dceff;
      }

      .cls-2 {
        fill: #f58bb9;
      }
    </style>
  </defs>
  <g>
    <path class="cls-1" d="M238.81,398.62c0,7.05-6.85,12.05-13.56,9.88-25.49-8.26-59.27-16.26-99.43-18.25-24.83-1.23-47.38.08-67.04,2.56-21.56,2.72-40.65-14.05-41.09-35.78-1.46-71.61-2.91-143.23-4.37-214.84-.31-15.31,8.9-29.14,23.08-34.9,21.55-8.76,52.19-17.53,89.42-17.53,49.26,0,86.97,15.35,107.37,25.71,3.47,1.76,5.62,5.34,5.62,9.23v273.92Z"/>
    <path class="cls-1" d="M261.19,399.85c0,7.05,6.85,12.05,13.56,9.88,25.49-8.26,59.27-16.26,99.43-18.25,24.83-1.23,47.38.08,67.04,2.56,21.56,2.72,40.65-14.05,41.09-35.78,1.46-71.61,2.91-143.23,4.37-214.84.31-15.31-8.9-29.14-23.08-34.9-21.55-8.76-52.19-17.53-89.42-17.53-49.26,0-86.97,15.35-107.37,25.71-3.47,1.76-5.62,5.34-5.62,9.23v273.92Z"/>
  </g>
  <path class="cls-2" d="M340.41,275.71l-26.69-14.39c-1.64-.89-3.62-.88-5.26.01l-26.33,14.33c-3.68,2-8.17-.66-8.17-4.85V103.09c0-6.01,4.87-10.88,10.88-10.88h52.84c6.01,0,10.88,4.87,10.88,10.88v167.76c0,4.18-4.47,6.85-8.15,4.86Z"/>
</svg>